<svg width="22" height="22" viewBox="0 0 22 22" fill="none" xmlns="http://www.w3.org/2000/svg">
<path d="M21.3125 10.3125H20.625V7.5625C20.625 7.19783 20.4801 6.84809 20.2223 6.59023C19.9644 6.33237 19.6147 6.1875 19.25 6.1875H17.875V5.5C17.875 5.13533 17.7301 4.78559 17.4723 4.52773C17.2144 4.26987 16.8647 4.125 16.5 4.125H14.4375C14.0728 4.125 13.7231 4.26987 13.4652 4.52773C13.2074 4.78559 13.0625 5.13533 13.0625 5.5V10.3125H8.9375V5.5C8.9375 5.13533 8.79263 4.78559 8.53477 4.52773C8.27691 4.26987 7.92717 4.125 7.5625 4.125H5.5C5.13533 4.125 4.78559 4.26987 4.52773 4.52773C4.26987 4.78559 4.125 5.13533 4.125 5.5V6.1875H2.75C2.38533 6.1875 2.03559 6.33237 1.77773 6.59023C1.51987 6.84809 1.375 7.19783 1.375 7.5625V10.3125H0.6875C0.505164 10.3125 0.330295 10.3849 0.201364 10.5139C0.0724328 10.6428 0 10.8177 0 11C0 11.1823 0.0724328 11.3572 0.201364 11.4861C0.330295 11.6151 0.505164 11.6875 0.6875 11.6875H1.375V14.4375C1.375 14.8022 1.51987 15.1519 1.77773 15.4098C2.03559 15.6676 2.38533 15.8125 2.75 15.8125H4.125V16.5C4.125 16.8647 4.26987 17.2144 4.52773 17.4723C4.78559 17.7301 5.13533 17.875 5.5 17.875H7.5625C7.92717 17.875 8.27691 17.7301 8.53477 17.4723C8.79263 17.2144 8.9375 16.8647 8.9375 16.5V11.6875H13.0625V16.5C13.0625 16.8647 13.2074 17.2144 13.4652 17.4723C13.7231 17.7301 14.0728 17.875 14.4375 17.875H16.5C16.8647 17.875 17.2144 17.7301 17.4723 17.4723C17.7301 17.2144 17.875 16.8647 17.875 16.5V15.8125H19.25C19.6147 15.8125 19.9644 15.6676 20.2223 15.4098C20.4801 15.1519 20.625 14.8022 20.625 14.4375V11.6875H21.3125C21.4948 11.6875 21.6697 11.6151 21.7986 11.4861C21.9276 11.3572 22 11.1823 22 11C22 10.8177 21.9276 10.6428 21.7986 10.5139C21.6697 10.3849 21.4948 10.3125 21.3125 10.3125ZM2.75 14.4375V7.5625H4.125V14.4375H2.75ZM7.5625 16.5H5.5V5.5H7.5625V16.5ZM16.5 16.5H14.4375V5.5H16.5V15.1095C16.5 15.1147 16.5 15.1198 16.5 15.125C16.5 15.1302 16.5 15.1353 16.5 15.1405V16.5ZM19.25 14.4375H17.875V7.5625H19.25V14.4375Z" fill="#C7153B"/>
</svg>
